# xmcd
#
# Track frame offsets:
#	150
#	18117
#	37754
#	48739
#	65723
#	76988
#	91060
#	108608
#	121660
#	138953
#	153500
#	166726
#	182611
#	197632
#	211123
#
# Disc length: 3045 seconds
#
# Revision: 0
# Processed by: cddbd v1.5PL3 Copyright (c) Steve Scherf et al.
# Submitted via: dBpowerAMP V4.0
#
DISCID=b70be30f
DTITLE=Alan Jackson - Greatest Hits
DYEAR=1900
DGENRE=
TTITLE0=Chattahoohe (Extended Mix)
TTITLE1=Gone Country
TTITLE2=She's Got The Rhythm (And I Got The Blues)
TTITLE3=Midnight In Montgomery
TTITLE4=Tall, Tall Trees
TTITLE5=Chasin, That Neon Rainbow
TTITLE6=I'll Try
TTITLE7=Don't Rock The Jukebox
TTITLE8=Livin On Love
TTITLE9=Summertime Blues
TTITLE10=Love Got A Hold On Me
TTITLE11=(Who Says) You Can't Have It All
TTITLE12=Home
TTITLE13=Wanted
TTITLE14=I Don't Even Know Your Name
EXTD=
EXTT0=
EXTT1=
EXTT2=
EXTT3=
EXTT4=
EXTT5=
EXTT6=
EXTT7=
EXTT8=
EXTT9=
EXTT10=
EXTT11=
EXTT12=
EXTT13=
EXTT14=
PLAYORDER=
